<mxfile host="app.diagrams.net" agent="Mozilla/5.0 (Windows NT 10.0; Win64; x64) AppleWebKit/537.36 (KHTML, like Gecko) Chrome/134.0.0.0 Safari/537.36" version="26.2.4">
  <diagram name="Página-1" id="FgUmj7QvdFpJSCHLMw_2">
    <mxGraphModel grid="1" page="1" gridSize="10" guides="1" tooltips="1" connect="1" arrows="1" fold="1" pageScale="1" pageWidth="827" pageHeight="1169" math="0" shadow="0">
      <root>
        <mxCell id="0" />
        <mxCell id="1" parent="0" />
        <mxCell id="Ct59y8NqZBHLW9FPtDnX-2" value="" style="whiteSpace=wrap;html=1;aspect=fixed;fontSize=21;" vertex="1" parent="1">
          <mxGeometry x="2160" y="-422.5" width="865" height="865" as="geometry" />
        </mxCell>
        <mxCell id="0D9tg0ZyXP1x8mRKVYDn-11" style="edgeStyle=orthogonalEdgeStyle;rounded=0;orthogonalLoop=1;jettySize=auto;html=1;exitX=1;exitY=1;exitDx=0;exitDy=0;exitPerimeter=0;" edge="1" parent="1" source="Ct59y8NqZBHLW9FPtDnX-1" target="0D9tg0ZyXP1x8mRKVYDn-7">
          <mxGeometry relative="1" as="geometry">
            <Array as="points">
              <mxPoint x="2130" y="200" />
            </Array>
          </mxGeometry>
        </mxCell>
        <mxCell id="0D9tg0ZyXP1x8mRKVYDn-13" style="edgeStyle=orthogonalEdgeStyle;rounded=0;orthogonalLoop=1;jettySize=auto;html=1;exitX=1;exitY=1;exitDx=0;exitDy=0;exitPerimeter=0;entryX=0;entryY=0.5;entryDx=0;entryDy=0;" edge="1" parent="1" source="Ct59y8NqZBHLW9FPtDnX-1" target="0D9tg0ZyXP1x8mRKVYDn-5">
          <mxGeometry relative="1" as="geometry">
            <Array as="points">
              <mxPoint x="2140" y="110" />
              <mxPoint x="2140" y="-20" />
            </Array>
          </mxGeometry>
        </mxCell>
        <mxCell id="0D9tg0ZyXP1x8mRKVYDn-15" style="edgeStyle=orthogonalEdgeStyle;rounded=0;orthogonalLoop=1;jettySize=auto;html=1;exitX=0.75;exitY=0.1;exitDx=0;exitDy=0;exitPerimeter=0;entryX=0;entryY=0.5;entryDx=0;entryDy=0;" edge="1" parent="1" source="Ct59y8NqZBHLW9FPtDnX-1" target="0D9tg0ZyXP1x8mRKVYDn-10">
          <mxGeometry relative="1" as="geometry">
            <Array as="points">
              <mxPoint x="2105" y="-240" />
            </Array>
          </mxGeometry>
        </mxCell>
        <mxCell id="0D9tg0ZyXP1x8mRKVYDn-16" style="edgeStyle=orthogonalEdgeStyle;rounded=0;orthogonalLoop=1;jettySize=auto;html=1;exitX=1;exitY=0.3333333333333333;exitDx=0;exitDy=0;exitPerimeter=0;entryX=0;entryY=0.5;entryDx=0;entryDy=0;" edge="1" parent="1" source="Ct59y8NqZBHLW9FPtDnX-1" target="0D9tg0ZyXP1x8mRKVYDn-4">
          <mxGeometry relative="1" as="geometry">
            <Array as="points">
              <mxPoint x="2130" y="-80" />
              <mxPoint x="2200" y="-80" />
              <mxPoint x="2200" y="-130" />
            </Array>
          </mxGeometry>
        </mxCell>
        <mxCell id="0D9tg0ZyXP1x8mRKVYDn-17" style="edgeStyle=orthogonalEdgeStyle;rounded=0;orthogonalLoop=1;jettySize=auto;html=1;exitX=1;exitY=1;exitDx=0;exitDy=0;exitPerimeter=0;entryX=0;entryY=0.5;entryDx=0;entryDy=0;" edge="1" parent="1" source="Ct59y8NqZBHLW9FPtDnX-1" target="0D9tg0ZyXP1x8mRKVYDn-6">
          <mxGeometry relative="1" as="geometry">
            <Array as="points">
              <mxPoint x="2180" y="110" />
              <mxPoint x="2180" y="90" />
            </Array>
          </mxGeometry>
        </mxCell>
        <object label="Operador Militar&lt;div&gt;&lt;br&gt;&lt;/div&gt;" Operador="" id="Ct59y8NqZBHLW9FPtDnX-1">
          <mxCell style="shape=umlActor;verticalLabelPosition=bottom;verticalAlign=top;html=1;outlineConnect=0;" vertex="1" parent="1">
            <mxGeometry x="2030" y="-90" width="100" height="200" as="geometry" />
          </mxCell>
        </object>
        <mxCell id="0D9tg0ZyXP1x8mRKVYDn-31" style="edgeStyle=orthogonalEdgeStyle;rounded=0;orthogonalLoop=1;jettySize=auto;html=1;exitX=0;exitY=0.3333333333333333;exitDx=0;exitDy=0;exitPerimeter=0;" edge="1" parent="1" source="Ct59y8NqZBHLW9FPtDnX-4" target="0D9tg0ZyXP1x8mRKVYDn-7">
          <mxGeometry relative="1" as="geometry">
            <Array as="points">
              <mxPoint x="3060" y="-23" />
              <mxPoint x="3060" y="160" />
            </Array>
          </mxGeometry>
        </mxCell>
        <mxCell id="0D9tg0ZyXP1x8mRKVYDn-32" style="edgeStyle=orthogonalEdgeStyle;rounded=0;orthogonalLoop=1;jettySize=auto;html=1;exitX=0.5;exitY=0;exitDx=0;exitDy=0;exitPerimeter=0;" edge="1" parent="1" source="Ct59y8NqZBHLW9FPtDnX-4" target="0D9tg0ZyXP1x8mRKVYDn-26">
          <mxGeometry relative="1" as="geometry">
            <Array as="points">
              <mxPoint x="3120" y="-350" />
            </Array>
          </mxGeometry>
        </mxCell>
        <mxCell id="0D9tg0ZyXP1x8mRKVYDn-33" style="edgeStyle=orthogonalEdgeStyle;rounded=0;orthogonalLoop=1;jettySize=auto;html=1;exitX=0.5;exitY=0;exitDx=0;exitDy=0;exitPerimeter=0;" edge="1" parent="1" source="Ct59y8NqZBHLW9FPtDnX-4" target="0D9tg0ZyXP1x8mRKVYDn-24">
          <mxGeometry relative="1" as="geometry">
            <Array as="points">
              <mxPoint x="3120" y="-240" />
            </Array>
          </mxGeometry>
        </mxCell>
        <mxCell id="0D9tg0ZyXP1x8mRKVYDn-38" style="edgeStyle=orthogonalEdgeStyle;rounded=0;orthogonalLoop=1;jettySize=auto;html=1;exitX=0.25;exitY=0.1;exitDx=0;exitDy=0;exitPerimeter=0;" edge="1" parent="1" source="Ct59y8NqZBHLW9FPtDnX-4" target="0D9tg0ZyXP1x8mRKVYDn-34">
          <mxGeometry relative="1" as="geometry">
            <Array as="points">
              <mxPoint x="3050" y="-70" />
              <mxPoint x="3050" y="-130" />
            </Array>
          </mxGeometry>
        </mxCell>
        <mxCell id="0D9tg0ZyXP1x8mRKVYDn-39" style="edgeStyle=orthogonalEdgeStyle;rounded=0;orthogonalLoop=1;jettySize=auto;html=1;exitX=0.25;exitY=0.1;exitDx=0;exitDy=0;exitPerimeter=0;entryX=1;entryY=0.5;entryDx=0;entryDy=0;" edge="1" parent="1" source="Ct59y8NqZBHLW9FPtDnX-4" target="0D9tg0ZyXP1x8mRKVYDn-35">
          <mxGeometry relative="1" as="geometry">
            <Array as="points">
              <mxPoint x="3040" y="-70" />
              <mxPoint x="3040" y="-20" />
            </Array>
          </mxGeometry>
        </mxCell>
        <mxCell id="0D9tg0ZyXP1x8mRKVYDn-40" style="edgeStyle=orthogonalEdgeStyle;rounded=0;orthogonalLoop=1;jettySize=auto;html=1;exitX=0;exitY=1;exitDx=0;exitDy=0;exitPerimeter=0;entryX=1;entryY=0.5;entryDx=0;entryDy=0;" edge="1" parent="1" source="Ct59y8NqZBHLW9FPtDnX-4" target="0D9tg0ZyXP1x8mRKVYDn-36">
          <mxGeometry relative="1" as="geometry">
            <Array as="points">
              <mxPoint x="3033" y="110" />
              <mxPoint x="3033" y="90" />
            </Array>
          </mxGeometry>
        </mxCell>
        <mxCell id="0D9tg0ZyXP1x8mRKVYDn-41" style="edgeStyle=orthogonalEdgeStyle;rounded=0;orthogonalLoop=1;jettySize=auto;html=1;exitX=0;exitY=1;exitDx=0;exitDy=0;exitPerimeter=0;entryX=1;entryY=0.5;entryDx=0;entryDy=0;" edge="1" parent="1" source="Ct59y8NqZBHLW9FPtDnX-4" target="0D9tg0ZyXP1x8mRKVYDn-37">
          <mxGeometry relative="1" as="geometry" />
        </mxCell>
        <mxCell id="Ct59y8NqZBHLW9FPtDnX-4" value="Central de Controle&lt;div&gt;&lt;br&gt;&lt;/div&gt;" style="shape=umlActor;verticalLabelPosition=bottom;verticalAlign=top;html=1;outlineConnect=0;" vertex="1" parent="1">
          <mxGeometry x="3070" y="-90" width="100" height="200" as="geometry" />
        </mxCell>
        <mxCell id="0D9tg0ZyXP1x8mRKVYDn-2" style="edgeStyle=orthogonalEdgeStyle;rounded=0;orthogonalLoop=1;jettySize=auto;html=1;exitX=1;exitY=0.3333333333333333;exitDx=0;exitDy=0;exitPerimeter=0;" edge="1" parent="1" source="Ct59y8NqZBHLW9FPtDnX-1" target="0D9tg0ZyXP1x8mRKVYDn-9">
          <mxGeometry relative="1" as="geometry">
            <mxPoint x="2270" y="-310" as="targetPoint" />
            <Array as="points">
              <mxPoint x="2130" y="-350" />
            </Array>
          </mxGeometry>
        </mxCell>
        <mxCell id="0D9tg0ZyXP1x8mRKVYDn-4" value="Controlar Drone Remotamente" style="ellipse;whiteSpace=wrap;fontSize=20;" vertex="1" parent="1">
          <mxGeometry x="2260" y="-180" width="200" height="100" as="geometry" />
        </mxCell>
        <mxCell id="0D9tg0ZyXP1x8mRKVYDn-5" value="Configurar Missão Autônoma" style="ellipse;whiteSpace=wrap;fontSize=20;" vertex="1" parent="1">
          <mxGeometry x="2260" y="-70" width="200" height="100" as="geometry" />
        </mxCell>
        <mxCell id="0D9tg0ZyXP1x8mRKVYDn-6" value="Exibir Dashboard em Tempo Real" style="ellipse;whiteSpace=wrap;fontSize=20;" vertex="1" parent="1">
          <mxGeometry x="2260" y="40" width="200" height="100" as="geometry" />
        </mxCell>
        <mxCell id="0D9tg0ZyXP1x8mRKVYDn-7" value="Finalizar Sessão" style="ellipse;whiteSpace=wrap;fontSize=20;" vertex="1" parent="1">
          <mxGeometry x="2260" y="150" width="200" height="100" as="geometry" />
        </mxCell>
        <mxCell id="0D9tg0ZyXP1x8mRKVYDn-9" value="Efetuar Login" style="ellipse;whiteSpace=wrap;fontSize=20;" vertex="1" parent="1">
          <mxGeometry x="2260" y="-400" width="200" height="100" as="geometry" />
        </mxCell>
        <mxCell id="0D9tg0ZyXP1x8mRKVYDn-10" value="Gerenciar Frotas de Drone" style="ellipse;whiteSpace=wrap;fontSize=20;" vertex="1" parent="1">
          <mxGeometry x="2260" y="-290" width="200" height="100" as="geometry" />
        </mxCell>
        <mxCell id="0D9tg0ZyXP1x8mRKVYDn-24" value="Transmitir Dados em Tempo Real" style="ellipse;whiteSpace=wrap;fontSize=20;" vertex="1" parent="1">
          <mxGeometry x="2795" y="-290" width="200" height="100" as="geometry" />
        </mxCell>
        <mxCell id="0D9tg0ZyXP1x8mRKVYDn-26" value="Registrar LOGS de Missão" style="ellipse;whiteSpace=wrap;fontSize=20;" vertex="1" parent="1">
          <mxGeometry x="2795" y="-400" width="200" height="100" as="geometry" />
        </mxCell>
        <mxCell id="0D9tg0ZyXP1x8mRKVYDn-34" value="Criptografar Dados" style="ellipse;whiteSpace=wrap;fontSize=20;" vertex="1" parent="1">
          <mxGeometry x="2795" y="-180" width="200" height="100" as="geometry" />
        </mxCell>
        <mxCell id="0D9tg0ZyXP1x8mRKVYDn-35" value="Gerenciar Usuários" style="ellipse;whiteSpace=wrap;fontSize=20;" vertex="1" parent="1">
          <mxGeometry x="2795" y="-70" width="200" height="100" as="geometry" />
        </mxCell>
        <mxCell id="0D9tg0ZyXP1x8mRKVYDn-36" value="Histórico de Voos" style="ellipse;whiteSpace=wrap;fontSize=20;" vertex="1" parent="1">
          <mxGeometry x="2795" y="40" width="200" height="100" as="geometry" />
        </mxCell>
        <mxCell id="0D9tg0ZyXP1x8mRKVYDn-37" value="Desativação Remota dos Drones" style="ellipse;whiteSpace=wrap;fontSize=20;" vertex="1" parent="1">
          <mxGeometry x="2795" y="170" width="200" height="100" as="geometry" />
        </mxCell>
      </root>
    </mxGraphModel>
  </diagram>
</mxfile>
